<mxfile host="app.diagrams.net" agent="Mozilla/5.0 (Windows NT 10.0; Win64; x64) AppleWebKit/537.36 (KHTML, like Gecko) Chrome/131.0.0.0 Safari/537.36" version="24.9.3">
  <diagram name="Сторінка-1" id="vcAcMYGY_Jj3YISb8oan">
    <mxGraphModel dx="917" dy="915" grid="1" gridSize="10" guides="1" tooltips="1" connect="1" arrows="1" fold="1" page="1" pageScale="1" pageWidth="827" pageHeight="1169" math="0" shadow="0">
      <root>
        <mxCell id="0" />
        <mxCell id="1" parent="0" />
        <mxCell id="9jm0TVSaJ_jIGVY4hK6L-3" value="" style="edgeStyle=none;curved=1;rounded=0;orthogonalLoop=1;jettySize=auto;html=1;fontSize=12;startSize=8;endSize=8;" edge="1" parent="1" source="9jm0TVSaJ_jIGVY4hK6L-1" target="9jm0TVSaJ_jIGVY4hK6L-2">
          <mxGeometry relative="1" as="geometry" />
        </mxCell>
        <mxCell id="9jm0TVSaJ_jIGVY4hK6L-1" value="Start" style="ellipse;whiteSpace=wrap;html=1;" vertex="1" parent="1">
          <mxGeometry x="250" y="12" width="120" height="80" as="geometry" />
        </mxCell>
        <mxCell id="9jm0TVSaJ_jIGVY4hK6L-5" value="" style="edgeStyle=none;curved=1;rounded=0;orthogonalLoop=1;jettySize=auto;html=1;fontSize=12;startSize=8;endSize=8;" edge="1" parent="1" source="9jm0TVSaJ_jIGVY4hK6L-2" target="9jm0TVSaJ_jIGVY4hK6L-4">
          <mxGeometry relative="1" as="geometry" />
        </mxCell>
        <mxCell id="9jm0TVSaJ_jIGVY4hK6L-2" value="input n, m" style="shape=parallelogram;perimeter=parallelogramPerimeter;whiteSpace=wrap;html=1;fixedSize=1;" vertex="1" parent="1">
          <mxGeometry x="250" y="132" width="120" height="60" as="geometry" />
        </mxCell>
        <mxCell id="9jm0TVSaJ_jIGVY4hK6L-7" value="" style="edgeStyle=none;curved=1;rounded=0;orthogonalLoop=1;jettySize=auto;html=1;fontSize=12;startSize=8;endSize=8;" edge="1" parent="1" source="9jm0TVSaJ_jIGVY4hK6L-4" target="9jm0TVSaJ_jIGVY4hK6L-6">
          <mxGeometry relative="1" as="geometry" />
        </mxCell>
        <mxCell id="9jm0TVSaJ_jIGVY4hK6L-4" value="i = 0" style="whiteSpace=wrap;html=1;" vertex="1" parent="1">
          <mxGeometry x="250" y="222" width="120" height="60" as="geometry" />
        </mxCell>
        <mxCell id="9jm0TVSaJ_jIGVY4hK6L-9" value="" style="edgeStyle=none;curved=1;rounded=0;orthogonalLoop=1;jettySize=auto;html=1;fontSize=12;startSize=8;endSize=8;" edge="1" parent="1" source="9jm0TVSaJ_jIGVY4hK6L-6" target="9jm0TVSaJ_jIGVY4hK6L-8">
          <mxGeometry relative="1" as="geometry" />
        </mxCell>
        <mxCell id="9jm0TVSaJ_jIGVY4hK6L-17" style="edgeStyle=elbowEdgeStyle;rounded=0;orthogonalLoop=1;jettySize=auto;html=1;entryX=0;entryY=0.5;entryDx=0;entryDy=0;fontSize=12;startSize=8;endSize=8;" edge="1" parent="1" source="9jm0TVSaJ_jIGVY4hK6L-6" target="9jm0TVSaJ_jIGVY4hK6L-15">
          <mxGeometry relative="1" as="geometry">
            <Array as="points">
              <mxPoint x="190" y="572" />
            </Array>
          </mxGeometry>
        </mxCell>
        <mxCell id="9jm0TVSaJ_jIGVY4hK6L-6" value="i &amp;lt; n" style="rhombus;whiteSpace=wrap;html=1;" vertex="1" parent="1">
          <mxGeometry x="270" y="332" width="80" height="80" as="geometry" />
        </mxCell>
        <mxCell id="9jm0TVSaJ_jIGVY4hK6L-11" value="" style="edgeStyle=none;curved=1;rounded=0;orthogonalLoop=1;jettySize=auto;html=1;fontSize=12;startSize=8;endSize=8;" edge="1" parent="1" source="9jm0TVSaJ_jIGVY4hK6L-8" target="9jm0TVSaJ_jIGVY4hK6L-10">
          <mxGeometry relative="1" as="geometry" />
        </mxCell>
        <mxCell id="9jm0TVSaJ_jIGVY4hK6L-8" value="input drink" style="shape=parallelogram;perimeter=parallelogramPerimeter;whiteSpace=wrap;html=1;fixedSize=1;" vertex="1" parent="1">
          <mxGeometry x="250" y="452" width="120" height="60" as="geometry" />
        </mxCell>
        <mxCell id="9jm0TVSaJ_jIGVY4hK6L-13" value="" style="edgeStyle=none;curved=1;rounded=0;orthogonalLoop=1;jettySize=auto;html=1;fontSize=12;startSize=8;endSize=8;" edge="1" parent="1" source="9jm0TVSaJ_jIGVY4hK6L-10" target="9jm0TVSaJ_jIGVY4hK6L-12">
          <mxGeometry relative="1" as="geometry" />
        </mxCell>
        <mxCell id="9jm0TVSaJ_jIGVY4hK6L-10" value="drinks.insert(drink)" style="whiteSpace=wrap;html=1;" vertex="1" parent="1">
          <mxGeometry x="250" y="547" width="120" height="60" as="geometry" />
        </mxCell>
        <mxCell id="9jm0TVSaJ_jIGVY4hK6L-14" style="edgeStyle=elbowEdgeStyle;rounded=0;orthogonalLoop=1;jettySize=auto;html=1;fontSize=12;startSize=8;endSize=8;entryX=1;entryY=0.5;entryDx=0;entryDy=0;" edge="1" parent="1" source="9jm0TVSaJ_jIGVY4hK6L-12" target="9jm0TVSaJ_jIGVY4hK6L-6">
          <mxGeometry relative="1" as="geometry">
            <mxPoint x="550" y="412" as="targetPoint" />
            <Array as="points">
              <mxPoint x="430" y="512" />
            </Array>
          </mxGeometry>
        </mxCell>
        <mxCell id="9jm0TVSaJ_jIGVY4hK6L-12" value="i++" style="whiteSpace=wrap;html=1;" vertex="1" parent="1">
          <mxGeometry x="250" y="632" width="120" height="60" as="geometry" />
        </mxCell>
        <mxCell id="9jm0TVSaJ_jIGVY4hK6L-19" value="" style="edgeStyle=orthogonalEdgeStyle;rounded=0;orthogonalLoop=1;jettySize=auto;html=1;fontSize=12;startSize=8;endSize=8;entryX=0.5;entryY=0;entryDx=0;entryDy=0;" edge="1" parent="1" source="9jm0TVSaJ_jIGVY4hK6L-15" target="9jm0TVSaJ_jIGVY4hK6L-18">
          <mxGeometry relative="1" as="geometry">
            <mxPoint x="630" y="102" as="targetPoint" />
            <Array as="points">
              <mxPoint x="470" y="782" />
              <mxPoint x="470" y="82" />
              <mxPoint x="630" y="82" />
            </Array>
          </mxGeometry>
        </mxCell>
        <mxCell id="9jm0TVSaJ_jIGVY4hK6L-15" value="i = 0" style="whiteSpace=wrap;html=1;" vertex="1" parent="1">
          <mxGeometry x="250" y="752" width="120" height="60" as="geometry" />
        </mxCell>
        <mxCell id="9jm0TVSaJ_jIGVY4hK6L-25" style="edgeStyle=none;curved=1;rounded=0;orthogonalLoop=1;jettySize=auto;html=1;fontSize=12;startSize=8;endSize=8;" edge="1" parent="1" source="9jm0TVSaJ_jIGVY4hK6L-18" target="9jm0TVSaJ_jIGVY4hK6L-21">
          <mxGeometry relative="1" as="geometry" />
        </mxCell>
        <mxCell id="9jm0TVSaJ_jIGVY4hK6L-30" style="edgeStyle=elbowEdgeStyle;rounded=0;orthogonalLoop=1;jettySize=auto;html=1;fontSize=12;startSize=8;endSize=8;entryX=0;entryY=0.5;entryDx=0;entryDy=0;" edge="1" parent="1" source="9jm0TVSaJ_jIGVY4hK6L-18" target="9jm0TVSaJ_jIGVY4hK6L-29">
          <mxGeometry relative="1" as="geometry">
            <mxPoint x="540" y="542" as="targetPoint" />
            <Array as="points">
              <mxPoint x="520" y="342" />
            </Array>
          </mxGeometry>
        </mxCell>
        <mxCell id="9jm0TVSaJ_jIGVY4hK6L-18" value="i &amp;lt; m" style="rhombus;whiteSpace=wrap;html=1;" vertex="1" parent="1">
          <mxGeometry x="590" y="112" width="80" height="80" as="geometry" />
        </mxCell>
        <mxCell id="9jm0TVSaJ_jIGVY4hK6L-20" value="" style="edgeStyle=none;curved=1;rounded=0;orthogonalLoop=1;jettySize=auto;html=1;fontSize=12;startSize=8;endSize=8;" edge="1" parent="1" source="9jm0TVSaJ_jIGVY4hK6L-21" target="9jm0TVSaJ_jIGVY4hK6L-23">
          <mxGeometry relative="1" as="geometry" />
        </mxCell>
        <mxCell id="9jm0TVSaJ_jIGVY4hK6L-21" value="input drink" style="shape=parallelogram;perimeter=parallelogramPerimeter;whiteSpace=wrap;html=1;fixedSize=1;" vertex="1" parent="1">
          <mxGeometry x="570" y="222" width="120" height="60" as="geometry" />
        </mxCell>
        <mxCell id="9jm0TVSaJ_jIGVY4hK6L-22" value="" style="edgeStyle=none;curved=1;rounded=0;orthogonalLoop=1;jettySize=auto;html=1;fontSize=12;startSize=8;endSize=8;" edge="1" parent="1" source="9jm0TVSaJ_jIGVY4hK6L-23" target="9jm0TVSaJ_jIGVY4hK6L-24">
          <mxGeometry relative="1" as="geometry" />
        </mxCell>
        <mxCell id="9jm0TVSaJ_jIGVY4hK6L-23" value="drinks.insert(drink)" style="whiteSpace=wrap;html=1;" vertex="1" parent="1">
          <mxGeometry x="570" y="317" width="120" height="60" as="geometry" />
        </mxCell>
        <mxCell id="9jm0TVSaJ_jIGVY4hK6L-28" style="edgeStyle=elbowEdgeStyle;rounded=0;orthogonalLoop=1;jettySize=auto;html=1;entryX=1;entryY=0.5;entryDx=0;entryDy=0;fontSize=12;startSize=8;endSize=8;" edge="1" parent="1" source="9jm0TVSaJ_jIGVY4hK6L-24" target="9jm0TVSaJ_jIGVY4hK6L-18">
          <mxGeometry relative="1" as="geometry">
            <Array as="points">
              <mxPoint x="750" y="272" />
            </Array>
          </mxGeometry>
        </mxCell>
        <mxCell id="9jm0TVSaJ_jIGVY4hK6L-24" value="i++" style="whiteSpace=wrap;html=1;" vertex="1" parent="1">
          <mxGeometry x="570" y="402" width="120" height="60" as="geometry" />
        </mxCell>
        <mxCell id="9jm0TVSaJ_jIGVY4hK6L-32" value="" style="edgeStyle=none;curved=1;rounded=0;orthogonalLoop=1;jettySize=auto;html=1;fontSize=12;startSize=8;endSize=8;" edge="1" parent="1" source="9jm0TVSaJ_jIGVY4hK6L-29" target="9jm0TVSaJ_jIGVY4hK6L-31">
          <mxGeometry relative="1" as="geometry" />
        </mxCell>
        <mxCell id="9jm0TVSaJ_jIGVY4hK6L-29" value="output drinks.size()" style="shape=parallelogram;perimeter=parallelogramPerimeter;whiteSpace=wrap;html=1;fixedSize=1;" vertex="1" parent="1">
          <mxGeometry x="555" y="512" width="150" height="60" as="geometry" />
        </mxCell>
        <mxCell id="9jm0TVSaJ_jIGVY4hK6L-31" value="The end" style="ellipse;whiteSpace=wrap;html=1;" vertex="1" parent="1">
          <mxGeometry x="580" y="632" width="100" height="60" as="geometry" />
        </mxCell>
        <mxCell id="9jm0TVSaJ_jIGVY4hK6L-33" value="True" style="text;html=1;align=center;verticalAlign=middle;whiteSpace=wrap;rounded=0;fontSize=16;" vertex="1" parent="1">
          <mxGeometry x="300" y="407" width="60" height="50" as="geometry" />
        </mxCell>
        <mxCell id="9jm0TVSaJ_jIGVY4hK6L-34" value="True" style="text;html=1;align=center;verticalAlign=middle;whiteSpace=wrap;rounded=0;fontSize=16;" vertex="1" parent="1">
          <mxGeometry x="620" y="173" width="60" height="50" as="geometry" />
        </mxCell>
        <mxCell id="9jm0TVSaJ_jIGVY4hK6L-35" value="False" style="text;html=1;align=center;verticalAlign=middle;whiteSpace=wrap;rounded=0;fontSize=16;" vertex="1" parent="1">
          <mxGeometry x="528" y="110" width="60" height="50" as="geometry" />
        </mxCell>
        <mxCell id="9jm0TVSaJ_jIGVY4hK6L-37" value="False" style="text;html=1;align=center;verticalAlign=middle;whiteSpace=wrap;rounded=0;fontSize=16;" vertex="1" parent="1">
          <mxGeometry x="210" y="332" width="60" height="50" as="geometry" />
        </mxCell>
      </root>
    </mxGraphModel>
  </diagram>
</mxfile>
